<?xml version="1.0" standalone="no"?>
<!DOCTYPE svg PUBLIC "-//W3C//DTD SVG 20010904//EN"
 "http://www.w3.org/TR/2001/REC-SVG-20010904/DTD/svg10.dtd">
<svg version="1.0" xmlns="http://www.w3.org/2000/svg"
 width="178.000000pt" height="225.000000pt" viewBox="0 0 178.000000 225.000000"
 preserveAspectRatio="xMidYMid meet">
<metadata>
Created by potrace 1.16, written by Peter Selinger 2001-2019
</metadata>
<g transform="translate(0.000000,225.000000) scale(0.100000,-0.100000)"
fill="#000000" stroke="none">
<path d="M0 1125 l0 -1125 890 0 890 0 0 1125 0 1125 -890 0 -890 0 0 -1125z
m1153 656 c55 -21 387 -350 387 -383 0 -4 -7 -8 -15 -8 -8 0 -24 -9 -35 -20
-18 -18 -19 -29 -14 -107 5 -65 2 -104 -10 -149 -9 -34 -16 -89 -16 -122 0
-34 -4 -72 -10 -86 -11 -30 -191 -219 -274 -288 l-58 -49 -223 3 c-205 3 -225
5 -245 23 -12 11 -30 20 -40 20 -10 0 -54 30 -98 66 -75 63 -86 68 -135 60 -5
0 -5 -7 -2 -13 4 -7 -21 16 -55 50 -34 35 -66 76 -72 90 -7 17 -11 112 -11
263 0 207 2 240 19 274 18 39 268 299 337 350 31 23 54 30 110 36 94 10 427 2
460 -10z m396 -723 c0 -85 -14 -214 -18 -170 0 6 -11 12 -23 12 -16 0 -45 -25
-95 -84 -77 -89 -242 -245 -281 -265 -14 -8 -100 -14 -232 -18 -116 -3 -210
-10 -210 -14 0 -4 7 -15 16 -23 14 -15 11 -16 -36 -16 -48 0 -55 3 -106 51
-30 29 -54 55 -54 59 0 4 10 10 22 13 15 4 38 -3 68 -23 42 -27 55 -30 170
-36 147 -7 342 9 376 31 40 26 270 253 299 295 24 34 30 57 40 152 9 88 15
114 30 124 10 8 22 14 27 14 4 0 8 -46 7 -102z"/>
<path d="M652 1673 c-34 -19 -232 -211 -284 -276 -18 -22 -27 -42 -21 -45 6
-5 7 -78 4 -197 -3 -121 -8 -174 -12 -145 -6 40 -6 37 -5 -20 0 -36 4 -63 8
-60 4 3 20 -13 36 -35 44 -60 266 -273 297 -285 29 -11 363 -14 415 -4 24 5
66 40 160 133 70 69 137 142 149 161 19 32 21 49 21 230 -1 130 -5 204 -13
222 -13 29 -107 129 -230 246 -43 39 -71 72 -65 72 9 0 8 4 -2 10 -9 6 -98 9
-210 8 -163 -2 -178 -3 -90 -8 l105 -5 -105 -5 c-111 -5 -133 -3 -124 11 7 13
3 11 -34 -8z m-3 -26 c-2 -2 -35 -32 -74 -67 -38 -36 -61 -54 -50 -41 33 40
109 111 119 111 5 0 7 -1 5 -3z m209 -274 c-2 -192 -6 -247 -15 -245 -10 1
-13 -30 -14 -130 0 -73 -3 -127 -6 -121 -3 9 -14 5 -37 -12 -18 -14 -36 -22
-39 -18 -6 6 -12 -126 -8 -170 1 -9 -4 -17 -13 -17 -14 0 -16 34 -16 296 0
194 3 293 10 289 6 -4 10 15 10 50 0 33 -4 54 -10 50 -5 -3 -6 -13 -3 -22 4
-10 2 -14 -4 -10 -6 4 -17 -12 -26 -34 -14 -35 -14 -40 -2 -35 22 8 19 -2 -13
-43 -43 -55 -85 -167 -72 -192 11 -20 5 -43 -10 -34 -13 8 -61 93 -65 116 -2
11 -14 32 -26 47 l-22 27 5 -138 c5 -125 8 -140 28 -162 12 -13 20 -30 17 -37
-6 -17 -105 88 -115 122 -4 14 -7 102 -7 196 l0 171 38 46 c21 26 42 47 47 47
4 0 25 -30 45 -66 l37 -66 38 88 c109 262 98 243 144 247 22 2 56 4 74 5 l32
2 -2 -247z m241 228 c9 -5 74 -69 144 -141 l127 -131 0 -54 0 -55 -55 0 c-53
0 -55 1 -55 26 0 20 -23 50 -92 121 l-93 94 -8 -148 c-8 -167 -23 -357 -25
-330 -1 9 -6 17 -12 17 -5 0 -25 -8 -44 -17 l-36 -18 0 -125 c0 -69 4 -120 8
-113 8 12 62 37 75 35 4 -1 7 17 7 41 1 40 1 41 14 19 12 -23 14 -22 109 79
53 56 97 109 97 116 0 14 23 43 34 43 3 0 6 -16 6 -36 0 -27 -9 -47 -36 -78
-63 -73 -71 -89 -32 -62 26 19 42 21 32 4 -4 -7 -3 -8 5 -4 9 6 9 11 1 21 -8
10 -6 13 7 11 11 0 17 5 15 14 -3 12 -1 13 9 3 7 -7 18 -13 24 -13 5 0 4 4 -3
9 -10 6 -9 11 4 22 16 12 17 12 9 -1 -5 -10 -5 -12 3 -5 6 6 12 24 15 40 3 24
4 22 6 -12 1 -40 -3 -45 -126 -173 -139 -143 -150 -149 -260 -150 l-53 0 0
478 c0 263 3 482 8 486 9 10 147 -1 171 -13z m-609 -104 c0 -2 -10 -12 -22
-23 l-23 -19 19 23 c18 21 26 27 26 19z m880 -352 c0 -12 -15 -15 -75 -15
l-75 0 0 -35 c0 -31 3 -35 26 -35 14 0 23 -4 19 -10 -3 -5 -24 -10 -46 -10
l-39 0 0 60 0 60 95 0 c78 0 95 -3 95 -15z m-867 -42 c-4 -10 -2 -14 4 -10 6
4 8 -3 5 -19 -6 -32 -10 -27 -16 19 -2 21 -1 35 4 32 5 -3 6 -13 3 -22z m354
-400 l5 -53 -37 0 c-20 0 -34 4 -30 10 3 5 12 7 20 3 12 -4 15 9 16 78 1 74 2
80 11 49 6 -19 12 -59 15 -87z m-80 -39 c-3 -3 -12 -4 -19 -1 -8 3 -5 6 6 6
11 1 17 -2 13 -5z"/>
<path d="M1075 780 c-3 -6 1 -7 9 -4 18 7 21 14 7 14 -6 0 -13 -4 -16 -10z"/>
<path d="M1376 1423 c20 -27 41 -50 47 -52 7 -2 -8 19 -32 47 -54 65 -63 67
-15 5z"/>
</g>
</svg>
