<?xml version="1.0" standalone="no"?>
<!DOCTYPE svg PUBLIC "-//W3C//DTD SVG 20010904//EN"
 "http://www.w3.org/TR/2001/REC-SVG-20010904/DTD/svg10.dtd">
<svg version="1.0" xmlns="http://www.w3.org/2000/svg"
 width="211.000000pt" height="225.000000pt" viewBox="0 0 211.000000 225.000000"
 preserveAspectRatio="xMidYMid meet">

<g transform="translate(0.000000,225.000000) scale(0.100000,-0.100000)"
fill="#000000" stroke="none">
<path d="M282 1967 l-282 -282 0 -560 0 -560 282 -283 282 -282 486 0 487 0
286 287 287 288 0 555 0 555 -282 283 -283 282 -490 0 -490 0 -283 -283z
m1441 -175 l257 -258 0 -405 0 -404 -267 -267 -268 -268 -393 0 -393 0 -270
267 -269 266 0 396 0 396 267 267 268 268 405 0 406 0 257 -258z"/>
<path d="M775 1913 c-4 -10 -47 -126 -97 -258 -49 -132 -93 -245 -97 -252 -4
-8 -32 38 -71 117 -35 72 -67 130 -70 130 -4 0 -50 -41 -103 -91 l-97 -91 0
-342 0 -341 95 -95 95 -95 0 324 c0 179 3 322 6 318 4 -3 40 -82 81 -174 41
-92 78 -171 81 -175 4 -4 49 102 99 235 l92 242 1 -517 0 -518 110 0 110 0 0
800 0 800 -114 0 c-99 0 -115 -2 -121 -17z"/>
<path d="M1160 1130 l0 -800 123 0 122 0 233 232 232 232 0 168 0 168 -180 0
-180 0 0 -100 0 -100 80 0 c80 0 80 0 80 -26 0 -21 -32 -58 -147 -172 l-148
-146 -3 533 c-1 294 0 536 2 539 3 2 70 -63 150 -144 140 -144 145 -150 146
-191 l0 -43 100 0 100 0 0 88 0 89 -231 236 -231 237 -124 0 -124 0 0 -800z"/>
</g>
</svg>
